<svg xmlns="http://www.w3.org/2000/svg" id="Capa_1" enable-background="new 0 0 512 512" height="512" viewBox="0 0 512 512" width="512"><path d="m436 482h-15v-94.45c0-52.15-24.74-100.67-65.87-131.55 41.13-30.89 65.87-79.4 65.87-131.56v-94.44h15c8.284 0 15-6.716 15-15s-6.716-15-15-15h-360c-8.284 0-15 6.716-15 15s6.716 15 15 15h15v94.44c0 52.16 24.74 100.67 65.87 131.56-41.13 30.88-65.87 79.4-65.87 131.55v94.45h-15c-8.28 0-15 6.72-15 15s6.72 15 15 15h360c8.28 0 15-6.72 15-15s-6.72-15-15-15zm-180-301c-24.81 0-45-20.19-45-45 0-19.55 12.54-36.24 30-42.42v-17.58c0-8.28 6.72-15 15-15s15 6.72 15 15v17.58c17.46 6.18 30 22.87 30 42.42 0 8.28-6.72 15-15 15s-15-6.72-15-15c0-8.27-6.73-15-15-15s-15 6.73-15 15 6.73 15 15 15c24.81 0 45 20.19 45 45 0 19.55-12.54 36.24-30 42.42v17.58c0 8.28-6.72 15-15 15s-15-6.72-15-15v-17.58c-17.46-6.18-30-22.87-30-42.42 0-8.28 6.72-15 15-15s15 6.72 15 15c0 8.27 6.73 15 15 15s15-6.73 15-15-6.73-15-15-15zm15 135v30c0 8.28-6.72 15-15 15s-15-6.72-15-15v-30c0-8.28 6.72-15 15-15s15 6.72 15 15zm-140 166c43.681-32.761 104.486-78.364 116-87 5.33-4 12.67-4 18 0 4.531 3.398 71.145 53.358 116 87z"/></svg>
